<svg width="1172" height="806" viewBox="0 0 1172 806" fill="none" xmlns="http://www.w3.org/2000/svg">
<g filter="url(#filter0_d_22_141)">
<path d="M108 301.871C108 308.089 114.784 311.93 120.116 308.73L168.116 279.93C170.526 278.485 172 275.881 172 273.071V218.4C172 213.982 168.418 210.4 164 210.4H116C111.582 210.4 108 213.982 108 218.4V301.871ZM19.7136 725.041C19.9037 724.35 20 723.637 20 722.92V138.806C20 136.99 19.3818 135.227 18.2469 133.809L14.3981 128.998C10.2076 123.76 13.937 116 20.645 116H200.975C202.431 116 203.859 116.397 205.106 117.149L253.731 146.467C256.132 147.915 257.6 150.514 257.6 153.318V312.957C257.6 315.828 256.062 318.479 253.569 319.903L186.178 358.413C180.713 361.536 180.828 369.455 186.382 372.417L253.365 408.141C255.972 409.532 257.6 412.246 257.6 415.2V562.829C257.6 564.08 258.147 565.269 259.097 566.083C261.193 567.88 261.068 571.162 258.841 572.794L183.129 628.273C177.844 632.145 170.4 628.372 170.4 621.82V452.83C170.4 449.86 168.754 447.134 166.126 445.751L121.326 422.172C115.999 419.368 109.6 423.231 109.6 429.251V654.332C109.6 655.94 110.084 657.511 110.99 658.839L117.262 668.037C119.684 671.59 118.865 676.422 115.407 678.977L29.8025 742.25C23.6926 746.766 15.3191 741.021 17.3337 733.696L19.7136 725.041Z" fill="white"/>
<path d="M286.406 124C286.406 119.582 289.988 116 294.406 116H376.006C380.425 116 384.006 119.582 384.006 124V513.534C384.006 516.089 382.786 518.491 380.721 519.997L299.121 579.524C293.835 583.381 286.406 579.605 286.406 573.061V124ZM294.406 95.2C289.988 95.2 286.406 91.6183 286.406 87.2V20C286.406 15.5817 289.988 12 294.406 12H376.006C380.425 12 384.006 15.5817 384.006 20V87.2C384.006 91.6183 380.425 95.2 376.006 95.2H294.406Z" fill="white"/>
<path d="M554.05 264C549.632 264 546.05 260.418 546.05 256V219.2C546.05 214.782 542.468 211.2 538.05 211.2H500.45C496.032 211.2 492.45 214.782 492.45 219.2V457.103C492.45 459.448 493.48 461.676 495.266 463.196L532.866 495.184C538.061 499.604 546.05 495.912 546.05 489.091V425.6C546.05 421.182 549.632 417.6 554.05 417.6H635.65C640.068 417.6 643.65 421.182 643.65 425.6V513.546C643.65 516.094 642.436 518.49 640.381 519.997L516.588 610.779C513.674 612.916 509.689 612.834 506.865 610.579L403.458 528.002C401.557 526.484 400.45 524.183 400.45 521.751V157.459C400.45 155.489 401.177 153.589 402.491 152.121L432.465 118.662C433.983 116.968 436.15 116 438.424 116H604.336C606.458 116 608.493 116.843 609.993 118.343L641.307 149.657C642.807 151.157 643.65 153.192 643.65 155.314V256C643.65 260.418 640.068 264 635.65 264H554.05Z" fill="white"/>
<path d="M864.493 116C866.614 116 868.649 116.843 870.149 118.343L901.463 149.657C902.963 151.157 903.806 153.192 903.806 155.314V513.546C903.806 516.094 902.592 518.49 900.537 519.997L776.744 610.779C773.83 612.916 769.845 612.834 767.021 610.579L663.614 528.002C661.713 526.484 660.606 524.183 660.606 521.751V157.459C660.606 155.489 661.333 153.589 662.648 152.121L692.622 118.662C694.139 116.968 696.306 116 698.58 116H864.493ZM760.606 211.2C756.188 211.2 752.606 214.782 752.606 219.2V457.103C752.606 459.448 753.636 461.676 755.422 463.196L793.022 495.184C798.218 499.604 806.206 495.912 806.206 489.091V219.2C806.206 214.782 802.625 211.2 798.206 211.2H760.606Z" fill="white"/>
<path d="M1159.16 721.595C1159.16 722.126 1159.27 722.652 1159.47 723.142C1161.08 726.95 1156.54 730.382 1153.31 727.8L924.565 544.802C922.667 543.284 921.562 540.985 921.562 538.555V469.6C921.562 465.182 925.144 461.6 929.563 461.6H1009.56C1013.98 461.6 1017.56 465.182 1017.56 469.6V473.723C1017.56 476.172 1018.68 478.485 1020.61 480.002L1050.21 503.371C1055.45 507.512 1063.16 503.776 1063.16 497.092V449.469C1063.16 446.584 1061.61 443.923 1059.1 442.504L925.627 367.097C923.116 365.678 921.562 363.016 921.562 360.131V138.806C921.562 136.99 920.944 135.227 919.809 133.809L915.961 128.998C911.77 123.759 915.499 116 922.208 116H1102.54C1103.99 116 1105.42 116.397 1106.67 117.149L1155.29 146.467C1157.69 147.915 1159.16 150.514 1159.16 153.318V221.6C1159.16 226.018 1155.58 229.6 1151.16 229.6H1071.16C1066.74 229.6 1063.16 226.018 1063.16 221.6V218.4C1063.16 213.982 1059.58 210.4 1055.16 210.4H1017.56C1013.14 210.4 1009.56 213.982 1009.56 218.4V324.829C1009.56 327.768 1011.17 330.471 1013.76 331.868L1154.96 408.133C1157.55 409.529 1159.16 412.232 1159.16 415.171V721.595Z" fill="white"/>
<path d="M200.975 110C203.522 110 206.022 110.695 208.204 112.011L256.829 141.329C261.031 143.863 263.6 148.412 263.6 153.318V312.957C263.6 317.981 260.908 322.621 256.546 325.113L189.155 363.622C187.789 364.403 187.818 366.382 189.206 367.123L256.188 402.847C260.751 405.28 263.6 410.03 263.6 415.2V562.082C268 566.487 267.511 573.879 262.387 577.634L186.675 633.113C177.427 639.889 164.401 633.285 164.4 621.82V452.83C164.4 452.088 163.988 451.406 163.331 451.061L118.531 427.481C117.199 426.781 115.6 427.746 115.6 429.251V654.332C115.6 654.734 115.721 655.127 115.947 655.459L122.219 664.657C126.458 670.874 125.025 679.33 118.974 683.803L33.3691 747.075C22.677 754.978 8.02335 744.924 11.5488 732.104L13.9287 723.45C13.9762 723.278 14 723.099 14 722.92V138.807C14 138.352 13.8452 137.911 13.5615 137.557L9.71289 132.746C2.37963 123.58 8.90575 110 20.6445 110H200.975ZM1102.54 110C1105.08 110 1107.58 110.695 1109.77 112.011L1158.39 141.329C1162.59 143.863 1165.16 148.412 1165.16 153.318V221.6C1165.16 229.332 1158.89 235.6 1151.16 235.6H1071.16C1063.43 235.599 1057.16 229.331 1057.16 221.6V218.4C1057.16 217.296 1056.27 216.4 1055.16 216.4H1017.56C1016.46 216.4 1015.56 217.296 1015.56 218.4V324.829C1015.56 325.564 1015.97 326.239 1016.61 326.588L1157.82 402.854C1162.34 405.298 1165.16 410.028 1165.16 415.172V721.21C1168.71 730.592 1157.54 738.864 1149.56 732.485L920.816 549.487C917.496 546.83 915.562 542.808 915.562 538.555V469.6C915.563 461.868 921.831 455.6 929.562 455.6H1009.56C1017.29 455.6 1023.56 461.868 1023.56 469.6V473.724C1023.56 474.336 1023.84 474.914 1024.32 475.293L1053.92 498.661C1055.23 499.697 1057.16 498.763 1057.16 497.092V449.469C1057.16 448.748 1056.77 448.082 1056.15 447.728L922.676 372.32C918.28 369.837 915.562 365.179 915.562 360.131V138.807C915.562 138.352 915.408 137.911 915.124 137.557L911.275 132.746C903.942 123.58 910.468 110 922.207 110H1102.54ZM604.336 110C608.049 110 611.61 111.475 614.235 114.101L645.55 145.414C648.175 148.04 649.65 151.601 649.65 155.313V256C649.65 263.732 643.382 270 635.65 270H554.05C546.318 270 540.05 263.732 540.05 256V219.2C540.05 218.096 539.154 217.2 538.05 217.2H500.45C499.346 217.2 498.45 218.096 498.45 219.2V457.103C498.45 457.689 498.708 458.246 499.154 458.626L536.754 490.614C538.053 491.719 540.05 490.796 540.05 489.091V425.6C540.05 417.868 546.318 411.6 554.05 411.6H635.65C643.382 411.6 649.65 417.868 649.65 425.6V513.546C649.65 518.006 647.525 522.199 643.929 524.836L520.136 615.617C515.036 619.357 508.063 619.214 503.121 615.268L399.714 532.69C396.387 530.034 394.45 526.008 394.45 521.751V157.459C394.45 154.012 395.722 150.686 398.022 148.118L427.996 114.658C430.652 111.694 434.444 110 438.424 110H604.336ZM864.492 110C868.205 110 871.766 111.475 874.392 114.101L905.706 145.414C908.331 148.04 909.807 151.601 909.807 155.313V513.546C909.807 518.006 907.681 522.199 904.085 524.836L780.292 615.617C775.192 619.357 768.219 619.214 763.277 615.268L659.87 532.69C656.544 530.034 654.607 526.008 654.606 521.751V157.459C654.607 154.012 655.879 150.686 658.179 148.118L688.152 114.658C690.808 111.694 694.6 110 698.58 110H864.492ZM376.006 110C383.738 110 390.006 116.268 390.006 124V513.533C390.006 518.005 387.87 522.208 384.257 524.844L302.657 584.372C293.406 591.121 280.406 584.513 280.406 573.062V124C280.406 116.268 286.674 110 294.406 110H376.006ZM760.606 217.2C759.502 217.2 758.606 218.096 758.606 219.2V457.103C758.606 457.689 758.864 458.246 759.311 458.626L796.91 490.614C798.209 491.719 800.206 490.796 800.206 489.091V219.2C800.206 218.096 799.311 217.2 798.206 217.2H760.606ZM116 216.4C114.895 216.4 114 217.296 114 218.4V301.87C114 303.425 115.696 304.386 117.029 303.586L165.029 274.785C165.631 274.424 166 273.773 166 273.07V218.4C166 217.296 165.105 216.4 164 216.4H116ZM376.006 6C383.738 6 390.006 12.268 390.006 20V87.2002C390.006 94.9321 383.738 101.2 376.006 101.2H294.406C286.674 101.2 280.406 94.9321 280.406 87.2002V20C280.406 12.268 286.674 6 294.406 6H376.006Z" stroke="black" stroke-width="12"/>
</g>
<g filter="url(#filter1_d_22_141)">
<path d="M275.268 675.455C276.615 674.508 278.222 674 279.869 674H933.1C934.747 674 936.353 674.508 937.701 675.455L1011.67 727.455C1016.21 730.641 1016.21 737.359 1011.67 740.545L937.701 792.545C936.353 793.492 934.747 794 933.1 794H279.869C278.222 794 276.615 793.492 275.268 792.545L201.295 740.545C196.762 737.359 196.762 730.641 201.295 727.455L275.268 675.455Z" fill="white"/>
<path d="M279.869 676.5H933.1C934.232 676.5 935.337 676.849 936.263 677.5L1010.24 729.5C1013.35 731.691 1013.35 736.31 1010.24 738.5L936.263 790.5C935.337 791.151 934.232 791.5 933.1 791.5H279.869C278.737 791.5 277.632 791.151 276.706 790.5L202.732 738.5C199.616 736.31 199.616 731.691 202.732 729.5L276.706 677.5C277.632 676.849 278.737 676.5 279.869 676.5Z" stroke="black" stroke-width="5"/>
</g>
<path d="M463.018 769C459.569 769 456.389 768.11 453.478 766.33C450.598 764.55 448.288 762.181 446.548 759.225C444.839 756.237 443.984 752.962 443.984 749.402V744.92C443.984 744.57 444.143 744.395 444.459 744.395H455.376C455.629 744.395 455.756 744.57 455.756 744.92V749.402C455.756 751.532 456.468 753.376 457.892 754.933C459.316 756.459 461.025 757.222 463.018 757.222C465.043 757.222 466.768 756.443 468.192 754.886C469.616 753.296 470.328 751.468 470.328 749.402C470.328 747.018 468.777 744.936 465.676 743.155C465.17 742.838 464.506 742.456 463.683 742.011C462.892 741.534 461.942 740.994 460.835 740.39C459.727 739.786 458.651 739.198 457.607 738.625C456.563 738.021 455.55 737.449 454.569 736.909C451.025 734.811 448.383 732.188 446.642 729.041C444.934 725.862 444.079 722.302 444.079 718.36C444.079 714.736 444.965 711.462 446.737 708.537C448.509 705.644 450.819 703.355 453.667 701.67C456.547 699.954 459.664 699.095 463.018 699.095C466.467 699.095 469.632 699.954 472.511 701.67C475.391 703.419 477.685 705.739 479.394 708.632C481.134 711.525 482.005 714.768 482.005 718.36V726.371C482.005 726.625 481.878 726.752 481.625 726.752H470.708C470.455 726.752 470.328 726.625 470.328 726.371L470.233 718.36C470.233 716.071 469.521 714.211 468.097 712.781C466.673 711.35 464.98 710.635 463.018 710.635C461.025 710.635 459.316 711.398 457.892 712.924C456.468 714.45 455.756 716.262 455.756 718.36C455.756 720.49 456.199 722.27 457.085 723.7C458.003 725.131 459.664 726.498 462.069 727.801C462.322 727.928 462.908 728.246 463.825 728.755C464.743 729.264 465.755 729.836 466.863 730.472C468.002 731.076 469.031 731.632 469.948 732.14C470.866 732.617 471.42 732.903 471.61 732.999C474.837 734.811 477.385 737.036 479.252 739.675C481.15 742.313 482.1 745.556 482.1 749.402C482.1 753.121 481.245 756.459 479.536 759.416C477.796 762.372 475.486 764.709 472.606 766.425C469.727 768.142 466.531 769 463.018 769Z" fill="black"/>
<path d="M506.734 769C503.317 769 500.153 768.11 497.241 766.33C494.33 764.55 492.004 762.165 490.264 759.177C488.555 756.157 487.701 752.867 487.701 749.307L487.89 700.478C487.89 700.224 488.017 700.097 488.27 700.097H499.187C499.441 700.097 499.567 700.224 499.567 700.478V749.307C499.567 751.5 500.263 753.376 501.656 754.933C503.048 756.459 504.741 757.222 506.734 757.222C508.823 757.222 510.563 756.459 511.956 754.933C513.348 753.376 514.044 751.5 514.044 749.307V700.478C514.044 700.224 514.171 700.097 514.424 700.097H525.341C525.594 700.097 525.721 700.224 525.721 700.478L525.911 749.307C525.911 752.899 525.056 756.205 523.348 759.225C521.607 762.213 519.297 764.597 516.418 766.378C513.538 768.126 510.31 769 506.734 769Z" fill="black"/>
<path d="M544.945 768.046H533.933C533.679 768.046 533.553 767.887 533.553 767.57L533.743 700.478C533.743 700.224 533.869 700.097 534.122 700.097H553.773C557.286 700.097 560.514 700.955 563.456 702.672C566.399 704.388 568.741 706.693 570.481 709.586C572.253 712.479 573.139 715.753 573.139 719.409C573.139 721.793 572.776 723.955 572.048 725.894C571.32 727.833 570.466 729.47 569.485 730.805C568.535 732.14 567.665 733.126 566.874 733.762C570.386 737.672 572.143 742.265 572.143 747.542L572.238 767.57C572.238 767.887 572.079 768.046 571.763 768.046H560.751C560.498 768.046 560.371 767.951 560.371 767.76V747.542C560.371 745.19 559.548 743.155 557.903 741.439C556.257 739.722 554.232 738.864 551.827 738.864H545.419L545.324 767.57C545.324 767.887 545.198 768.046 544.945 768.046ZM553.773 711.779H545.419V727.134H553.773C555.767 727.134 557.539 726.387 559.09 724.892C560.672 723.398 561.463 721.571 561.463 719.409C561.463 717.343 560.703 715.562 559.184 714.068C557.666 712.542 555.862 711.779 553.773 711.779Z" fill="black"/>
<path d="M603.138 768.046H591.366C591.082 768.046 590.923 767.887 590.892 767.57L577.459 700.478C577.396 700.224 577.522 700.097 577.839 700.097H588.851C589.104 700.097 589.262 700.224 589.325 700.478L597.3 745.206L605.084 700.478C605.147 700.224 605.306 700.097 605.559 700.097H616.429C616.777 700.097 616.903 700.224 616.808 700.478L603.613 767.57C603.581 767.887 603.423 768.046 603.138 768.046Z" fill="black"/>
<path d="M633.991 768.046H622.979C622.662 768.046 622.504 767.887 622.504 767.57L622.599 700.478C622.599 700.224 622.726 700.097 622.979 700.097H633.896C634.149 700.097 634.276 700.224 634.276 700.478L634.371 767.57C634.371 767.887 634.244 768.046 633.991 768.046Z" fill="black"/>
<path d="M665.603 768.046H653.832C653.547 768.046 653.389 767.887 653.357 767.57L639.924 700.478C639.861 700.224 639.987 700.097 640.304 700.097H651.316C651.569 700.097 651.727 700.224 651.791 700.478L659.765 745.206L667.549 700.478C667.613 700.224 667.771 700.097 668.024 700.097H678.894C679.242 700.097 679.368 700.224 679.274 700.478L666.078 767.57C666.046 767.887 665.888 768.046 665.603 768.046Z" fill="black"/>
<path d="M702.959 769C699.51 769 696.33 768.11 693.418 766.33C690.539 764.55 688.213 762.181 686.441 759.225C684.7 756.237 683.83 752.962 683.83 749.402L683.925 718.455C683.925 714.831 684.795 711.573 686.536 708.68C688.245 705.755 690.555 703.419 693.466 701.67C696.377 699.89 699.542 699 702.959 699C706.503 699 709.683 699.874 712.5 701.623C715.348 703.371 717.626 705.724 719.335 708.68C721.075 711.605 721.946 714.863 721.946 718.455L722.04 749.402C722.04 752.962 721.186 756.221 719.477 759.177C717.737 762.165 715.427 764.55 712.547 766.33C709.668 768.11 706.472 769 702.959 769ZM702.959 757.222C704.921 757.222 706.63 756.427 708.085 754.838C709.541 753.217 710.269 751.405 710.269 749.402L710.174 718.455C710.174 716.293 709.494 714.466 708.133 712.972C706.772 711.477 705.048 710.73 702.959 710.73C700.966 710.73 699.257 711.462 697.833 712.924C696.409 714.386 695.697 716.23 695.697 718.455V749.402C695.697 751.532 696.409 753.376 697.833 754.933C699.257 756.459 700.966 757.222 702.959 757.222Z" fill="black"/>
<path d="M740.79 768.046H729.777C729.524 768.046 729.398 767.887 729.398 767.57L729.588 700.478C729.588 700.224 729.714 700.097 729.967 700.097H749.618C753.131 700.097 756.358 700.955 759.301 702.672C762.244 704.388 764.586 706.693 766.326 709.586C768.098 712.479 768.984 715.753 768.984 719.409C768.984 721.793 768.62 723.955 767.893 725.894C767.165 727.833 766.31 729.47 765.329 730.805C764.38 732.14 763.51 733.126 762.719 733.762C766.231 737.672 767.988 742.265 767.988 747.542L768.083 767.57C768.083 767.887 767.924 768.046 767.608 768.046H756.596C756.343 768.046 756.216 767.951 756.216 767.76V747.542C756.216 745.19 755.393 743.155 753.748 741.439C752.102 739.722 750.077 738.864 747.672 738.864H741.264L741.169 767.57C741.169 767.887 741.043 768.046 740.79 768.046ZM749.618 711.779H741.264V727.134H749.618C751.612 727.134 753.384 726.387 754.934 724.892C756.517 723.398 757.308 721.571 757.308 719.409C757.308 717.343 756.548 715.562 755.029 714.068C753.51 712.542 751.707 711.779 749.618 711.779Z" fill="black"/>
<defs>
<filter id="filter0_d_22_141" x="0.607422" y="0" width="1171.26" height="795.898" filterUnits="userSpaceOnUse" color-interpolation-filters="sRGB">
<feFlood flood-opacity="0" result="BackgroundImageFix"/>
<feColorMatrix in="SourceAlpha" type="matrix" values="0 0 0 0 0 0 0 0 0 0 0 0 0 0 0 0 0 0 127 0" result="hardAlpha"/>
<feOffset dy="40"/>
<feComposite in2="hardAlpha" operator="out"/>
<feColorMatrix type="matrix" values="0 0 0 0 0 0 0 0 0 0 0 0 0 0 0 0 0 0 1 0"/>
<feBlend mode="normal" in2="BackgroundImageFix" result="effect1_dropShadow_22_141"/>
<feBlend mode="normal" in="SourceGraphic" in2="effect1_dropShadow_22_141" result="shape"/>
</filter>
<filter id="filter1_d_22_141" x="197.896" y="674" width="817.178" height="132" filterUnits="userSpaceOnUse" color-interpolation-filters="sRGB">
<feFlood flood-opacity="0" result="BackgroundImageFix"/>
<feColorMatrix in="SourceAlpha" type="matrix" values="0 0 0 0 0 0 0 0 0 0 0 0 0 0 0 0 0 0 127 0" result="hardAlpha"/>
<feOffset dy="12"/>
<feComposite in2="hardAlpha" operator="out"/>
<feColorMatrix type="matrix" values="0 0 0 0 0 0 0 0 0 0 0 0 0 0 0 0 0 0 1 0"/>
<feBlend mode="normal" in2="BackgroundImageFix" result="effect1_dropShadow_22_141"/>
<feBlend mode="normal" in="SourceGraphic" in2="effect1_dropShadow_22_141" result="shape"/>
</filter>
</defs>
</svg>
