<svg xmlns="http://www.w3.org/2000/svg" viewBox="0 0 200 200" width="200" height="200">
  <defs>
    <!-- Wood grain pattern -->
    <pattern id="woodGrain" patternUnits="userSpaceOnUse" width="100" height="100">
      <rect fill="#D4A574" width="100" height="100"/>
      <path d="M0 20 Q25 18 50 20 Q75 22 100 20" stroke="#C4956A" stroke-width="1.5" fill="none"/>
      <path d="M0 35 Q30 32 60 35 Q80 38 100 35" stroke="#C4956A" stroke-width="1.5" fill="none"/>
      <path d="M0 50 Q20 48 45 50 Q70 52 100 50" stroke="#C4956A" stroke-width="1.5" fill="none"/>
      <path d="M0 65 Q35 62 65 65 Q85 68 100 65" stroke="#C4956A" stroke-width="1.5" fill="none"/>
      <path d="M0 80 Q25 78 55 80 Q75 82 100 80" stroke="#C4956A" stroke-width="1.5" fill="none"/>
    </pattern>
    
    <!-- Tree rings pattern for top -->
    <pattern id="treeRings" patternUnits="userSpaceOnUse" width="60" height="60">
      <rect fill="#E8D4B8" width="60" height="60"/>
      <circle cx="30" cy="30" r="25" stroke="#C4956A" stroke-width="2" fill="none"/>
      <circle cx="30" cy="30" r="18" stroke="#C4956A" stroke-width="2" fill="none"/>
      <circle cx="30" cy="30" r="11" stroke="#C4956A" stroke-width="2" fill="none"/>
      <circle cx="30" cy="30" r="5" stroke="#C4956A" stroke-width="2" fill="none"/>
    </pattern>
  </defs>
  
  <!-- Drop shadow for depth -->
  <ellipse cx="100" cy="185" rx="45" ry="8" fill="rgba(0,0,0,0.2)"/>
  
  <!-- Left leg (rubber hose style) -->
  <path d="M70 145 Q60 155 55 165 Q52 172 58 175" stroke="#1a1a1a" stroke-width="6" fill="none" stroke-linecap="round"/>
  <!-- Left shoe -->
  <ellipse cx="52" cy="178" rx="14" ry="8" fill="#1a1a1a" stroke="#1a1a1a" stroke-width="2"/>
  <ellipse cx="48" cy="176" rx="5" ry="3" fill="#3a3a3a"/>
  
  <!-- Right leg (rubber hose style) -->
  <path d="M130 145 Q140 155 145 165 Q148 172 142 175" stroke="#1a1a1a" stroke-width="6" fill="none" stroke-linecap="round"/>
  <!-- Right shoe -->
  <ellipse cx="148" cy="178" rx="14" ry="8" fill="#1a1a1a" stroke="#1a1a1a" stroke-width="2"/>
  <ellipse cx="152" cy="176" rx="5" ry="3" fill="#3a3a3a"/>
  
  <!-- Left arm (rubber hose style) -->
  <path d="M45 95 Q25 85 20 75 Q15 65 25 60" stroke="#1a1a1a" stroke-width="6" fill="none" stroke-linecap="round"/>
  <!-- Left glove (Cuphead style white glove) -->
  <circle cx="22" cy="55" r="12" fill="#FFFEF0" stroke="#1a1a1a" stroke-width="3"/>
  <path d="M15 50 Q12 45 15 42" stroke="#1a1a1a" stroke-width="2.5" fill="none" stroke-linecap="round"/>
  <path d="M20 48 Q18 42 22 40" stroke="#1a1a1a" stroke-width="2.5" fill="none" stroke-linecap="round"/>
  <path d="M26 48 Q26 43 30 42" stroke="#1a1a1a" stroke-width="2.5" fill="none" stroke-linecap="round"/>
  
  <!-- Right arm (rubber hose style, raised fist) -->
  <path d="M155 95 Q175 80 180 65 Q183 55 175 50" stroke="#1a1a1a" stroke-width="6" fill="none" stroke-linecap="round"/>
  <!-- Right glove (Cuphead style white glove - fist) -->
  <circle cx="172" cy="45" r="13" fill="#FFFEF0" stroke="#1a1a1a" stroke-width="3"/>
  <path d="M165 42 L165 48" stroke="#1a1a1a" stroke-width="2" stroke-linecap="round"/>
  <path d="M170 40 L170 50" stroke="#1a1a1a" stroke-width="2" stroke-linecap="round"/>
  <path d="M176 40 L176 50" stroke="#1a1a1a" stroke-width="2" stroke-linecap="round"/>
  
  <!-- Main stump body -->
  <rect x="50" y="55" width="100" height="95" rx="15" ry="15" fill="url(#woodGrain)" stroke="#1a1a1a" stroke-width="4"/>
  
  <!-- Top of stump (tree rings) -->
  <ellipse cx="100" cy="55" rx="50" ry="15" fill="url(#treeRings)" stroke="#1a1a1a" stroke-width="4"/>
  
  <!-- Small branch/twig on top -->
  <path d="M90 42 Q85 25 80 15 Q78 10 82 8" stroke="#8B6914" stroke-width="5" fill="none" stroke-linecap="round"/>
  <path d="M90 42 Q85 25 80 15" stroke="#1a1a1a" stroke-width="6" fill="none" stroke-linecap="round"/>
  <path d="M90 42 Q85 25 80 15 Q78 10 82 8" stroke="#A67C00" stroke-width="4" fill="none" stroke-linecap="round"/>
  <!-- Small leaf -->
  <ellipse cx="80" cy="8" rx="6" ry="4" fill="#5D8A3E" stroke="#1a1a1a" stroke-width="2" transform="rotate(-30 80 8)"/>
  
  <!-- Face background (lighter area for face) -->
  <ellipse cx="100" cy="100" rx="35" ry="30" fill="#E8D4B8" opacity="0.5"/>
  
  <!-- Cuphead-style PIE CUT EYES -->
  <!-- Left eye -->
  <ellipse cx="80" cy="90" rx="14" ry="16" fill="#FFFEF0" stroke="#1a1a1a" stroke-width="3"/>
  <!-- Pie cut pupil left -->
  <circle cx="82" cy="92" r="8" fill="#1a1a1a"/>
  <!-- Classic pie slice highlight -->
  <path d="M82 84 L82 92 L76 92 A8 8 0 0 1 82 84" fill="#FFFEF0"/>
  
  <!-- Right eye -->
  <ellipse cx="120" cy="90" rx="14" ry="16" fill="#FFFEF0" stroke="#1a1a1a" stroke-width="3"/>
  <!-- Pie cut pupil right -->
  <circle cx="122" cy="92" r="8" fill="#1a1a1a"/>
  <!-- Classic pie slice highlight -->
  <path d="M122 84 L122 92 L116 92 A8 8 0 0 1 122 84" fill="#FFFEF0"/>
  
  <!-- Angry eyebrows (very expressive, Cuphead style) -->
  <path d="M65 78 Q80 72 90 80" stroke="#1a1a1a" stroke-width="5" fill="none" stroke-linecap="round"/>
  <path d="M135 78 Q120 72 110 80" stroke="#1a1a1a" stroke-width="5" fill="none" stroke-linecap="round"/>
  
  <!-- Cuphead-style mouth (angry grin) -->
  <path d="M75 118 Q100 135 125 118" stroke="#1a1a1a" stroke-width="4" fill="#2a1a1a"/>
  <!-- Teeth -->
  <rect x="85" y="118" width="8" height="8" fill="#FFFEF0" stroke="#1a1a1a" stroke-width="1"/>
  <rect x="95" y="118" width="8" height="8" fill="#FFFEF0" stroke="#1a1a1a" stroke-width="1"/>
  <rect x="105" y="118" width="8" height="8" fill="#FFFEF0" stroke="#1a1a1a" stroke-width="1"/>
  
  <!-- Nose (small button nose) -->
  <ellipse cx="100" cy="105" rx="5" ry="4" fill="#C4956A" stroke="#1a1a1a" stroke-width="2"/>
  
  <!-- Cheek lines (vintage cartoon style) -->
  <path d="M55 100 Q58 105 55 110" stroke="#1a1a1a" stroke-width="2" fill="none"/>
  <path d="M145 100 Q142 105 145 110" stroke="#1a1a1a" stroke-width="2" fill="none"/>
  
  <!-- Blush marks -->
  <ellipse cx="60" cy="105" rx="8" ry="5" fill="#E8A090" opacity="0.6"/>
  <ellipse cx="140" cy="105" rx="8" ry="5" fill="#E8A090" opacity="0.6"/>
  
  <!-- Wood knot detail on body -->
  <ellipse cx="130" cy="120" rx="8" ry="10" fill="none" stroke="#B8956A" stroke-width="2"/>
  <ellipse cx="130" cy="120" rx="4" ry="5" fill="#A67C52"/>
</svg>